<?xml version="1.0" encoding="UTF-8"?>
<!DOCTYPE svg PUBLIC "-//W3C//DTD SVG 1.1//EN" "http://www.w3.org/Graphics/SVG/1.1/DTD/svg11.dtd">
<svg xmlns="http://www.w3.org/2000/svg" version="1.1" width="402px" height="397px" style="shape-rendering:geometricPrecision; text-rendering:geometricPrecision; image-rendering:optimizeQuality; fill-rule:evenodd; clip-rule:evenodd" xmlns:xlink="http://www.w3.org/1999/xlink">
<g><path style="opacity:1" fill="#e03c41" d="M 351.5,-0.5 C 353.167,-0.5 354.833,-0.5 356.5,-0.5C 355.581,2.08917 353.914,4.08917 351.5,5.5C 351.5,4.5 351.5,3.5 351.5,2.5C 348.833,2.5 346.167,2.5 343.5,2.5C 346.167,1.5 348.833,0.5 351.5,-0.5 Z"/></g>
<g><path style="opacity:1" fill="#d30607" d="M 343.5,2.5 C 346.167,2.5 348.833,2.5 351.5,2.5C 351.5,3.5 351.5,4.5 351.5,5.5C 332.695,22.801 313.695,39.9676 294.5,57C 327.174,53.8329 359.841,50.3329 392.5,46.5C 395.969,45.8872 397.969,47.2206 398.5,50.5C 371.167,75.5 343.833,100.5 316.5,125.5C 343.016,125.836 369.349,126.836 395.5,128.5C 356.789,158.543 317.789,188.21 278.5,217.5C 276.952,217.821 276.285,218.821 276.5,220.5C 296.469,218.972 316.469,217.639 336.5,216.5C 339.59,216.522 342.257,217.188 344.5,218.5C 264.833,277.167 185.167,335.833 105.5,394.5C 104.5,394.5 103.5,394.5 102.5,394.5C 103.5,389.833 104.5,385.167 105.5,380.5C 106.924,378.485 107.59,376.152 107.5,373.5C 110.377,360.129 112.711,346.796 114.5,333.5C 115.66,321.007 115.827,308.34 115,295.5C 114.553,286.507 113.053,277.84 110.5,269.5C 110.5,268.833 110.5,268.167 110.5,267.5C 110.829,264.772 110.163,262.438 108.5,260.5C 108.5,259.833 108.5,259.167 108.5,258.5C 108.41,254.786 107.41,251.452 105.5,248.5C 105.5,248.167 105.5,247.833 105.5,247.5C 105.59,244.848 104.924,242.515 103.5,240.5C 102.596,239.791 102.263,238.791 102.5,237.5C 101.935,233.463 100.601,229.797 98.5,226.5C 96.3668,218.532 93.3668,210.865 89.5,203.5C 88.7348,202.388 87.7348,201.721 86.5,201.5C 81.1667,200.833 75.8333,200.167 70.5,199.5C 64.0627,197.961 57.3961,197.294 50.5,197.5C 40.1349,197.118 29.8015,196.285 19.5,195C 17.548,193.588 16.2147,191.755 15.5,189.5C 15.3712,186.13 13.7046,184.13 10.5,183.5C 6.90836,178.643 3.57502,173.643 0.5,168.5C 28.4803,166.508 56.8136,165.842 85.5,166.5C 86.5824,164.673 86.5824,162.673 85.5,160.5C 84.1338,158.63 82.9672,156.63 82,154.5C 80.3845,153.199 78.8845,153.199 77.5,154.5C 66.462,155.458 55.462,156.791 44.5,158.5C 43.5,158.333 42.5,158.167 41.5,158C 43.3734,156.296 45.0401,154.463 46.5,152.5C 49.7642,150.906 52.4309,148.573 54.5,145.5C 56.1757,143.166 58.509,142.166 61.5,142.5C 70.1688,140.609 78.5021,137.943 86.5,134.5C 94.1682,132.943 101.501,130.609 108.5,127.5C 117.169,125.609 125.502,122.943 133.5,119.5C 141.168,117.943 148.501,115.609 155.5,112.5C 164.169,110.609 172.502,107.943 180.5,104.5C 182.5,104.5 184.5,104.5 186.5,104.5C 186.5,105.5 186.5,106.5 186.5,107.5C 171.875,127.905 156.875,148.071 141.5,168C 145.195,170.51 148.862,173.01 152.5,175.5C 153.13,178.705 155.13,180.371 158.5,180.5C 160.062,180.733 161.395,181.4 162.5,182.5C 163.13,185.705 165.13,187.371 168.5,187.5C 170.969,188.569 173.302,189.902 175.5,191.5C 176.13,194.705 178.13,196.371 181.5,196.5C 183.969,197.569 186.302,198.902 188.5,200.5C 189.13,203.705 191.13,205.371 194.5,205.5C 195.496,205.414 196.329,205.748 197,206.5C 197.708,205.619 198.542,204.953 199.5,204.5C 201.914,203.089 203.581,201.089 204.5,198.5C 206.262,197.738 207.262,196.404 207.5,194.5C 209.262,193.738 210.262,192.404 210.5,190.5C 212.262,189.738 213.262,188.404 213.5,186.5C 214.906,186.027 215.573,185.027 215.5,183.5C 216.906,183.027 217.573,182.027 217.5,180.5C 218.376,180.631 219.043,180.298 219.5,179.5C 220.917,176.33 222.584,173.33 224.5,170.5C 226.095,167.32 227.095,163.987 227.5,160.5C 227.5,160.167 227.5,159.833 227.5,159.5C 229.99,156.374 231.323,152.708 231.5,148.5C 231.808,144.64 232.475,140.974 233.5,137.5C 235.836,125.922 234.169,114.922 228.5,104.5C 228.614,101.784 227.614,99.784 225.5,98.5C 224.094,98.0269 223.427,97.0269 223.5,95.5C 223.512,92.858 222.179,91.5246 219.5,91.5C 218.833,90.5 218.167,89.5 217.5,88.5C 216.738,86.7376 215.404,85.7376 213.5,85.5C 213.027,84.0937 212.027,83.427 210.5,83.5C 207.515,82.6743 204.849,81.341 202.5,79.5C 201.365,77.7868 199.698,77.1201 197.5,77.5C 193.37,74.6761 188.703,73.0094 183.5,72.5C 181.901,72.7678 180.568,72.4345 179.5,71.5C 177.162,69.9605 174.495,69.2938 171.5,69.5C 167.106,69.1563 162.772,68.4897 158.5,67.5C 152.493,65.3064 146.16,64.3064 139.5,64.5C 128.82,64.0228 118.153,63.3562 107.5,62.5C 103.688,61.6762 99.6877,61.1762 95.5,61C 96.7375,60.7679 97.7375,60.2679 98.5,59.5C 107.366,56.9931 116.366,54.9931 125.5,53.5C 128.152,53.5905 130.485,52.9238 132.5,51.5C 134.042,50.6993 135.708,50.366 137.5,50.5C 140.187,50.6641 142.854,50.4974 145.5,50C 146.056,49.6174 146.389,49.1174 146.5,48.5C 211.937,32.6756 277.604,17.3423 343.5,2.5 Z"/></g>
<g><path style="opacity:1" fill="#e24e4f" d="M 392.5,46.5 C 395.287,45.5233 398.287,45.19 401.5,45.5C 401.5,46.5 401.5,47.5 401.5,48.5C 400.5,49.1667 399.5,49.8333 398.5,50.5C 397.969,47.2206 395.969,45.8872 392.5,46.5 Z"/></g>
<g><path style="opacity:1" fill="#e24649" d="M 146.5,48.5 C 146.389,49.1174 146.056,49.6174 145.5,50C 142.854,50.4974 140.187,50.6641 137.5,50.5C 140.273,49.3428 143.273,48.6761 146.5,48.5 Z"/></g>
<g><path style="opacity:0.592" fill="#e66572" d="M 132.5,51.5 C 130.485,52.9238 128.152,53.5905 125.5,53.5C 127.515,52.0762 129.848,51.4095 132.5,51.5 Z"/></g>
<g><path style="opacity:0.687" fill="#e4485d" d="M 98.5,59.5 C 97.7375,60.2679 96.7375,60.7679 95.5,61C 99.6877,61.1762 103.688,61.6762 107.5,62.5C 103.167,62.5 98.8333,62.5 94.5,62.5C 94.5,61.5 94.5,60.5 94.5,59.5C 95.8333,59.5 97.1667,59.5 98.5,59.5 Z"/></g>
<g><path style="opacity:0.89" fill="#e23d51" d="M 139.5,64.5 C 146.16,64.3064 152.493,65.3064 158.5,67.5C 151.992,66.7628 145.659,65.7628 139.5,64.5 Z"/></g>
<g><path style="opacity:0.565" fill="#e64e60" d="M 171.5,69.5 C 174.495,69.2938 177.162,69.9605 179.5,71.5C 176.572,71.4349 173.905,70.7682 171.5,69.5 Z"/></g>
<g><path style="opacity:0.557" fill="#e65463" d="M 183.5,72.5 C 188.703,73.0094 193.37,74.6761 197.5,77.5C 192.607,76.2042 187.94,74.5376 183.5,72.5 Z"/></g>
<g><path style="opacity:0.714" fill="#e85763" d="M 197.5,77.5 C 199.698,77.1201 201.365,77.7868 202.5,79.5C 200.597,79.2041 198.93,78.5375 197.5,77.5 Z"/></g>
<g><path style="opacity:0.369" fill="#e96270" d="M 210.5,83.5 C 212.027,83.427 213.027,84.0937 213.5,85.5C 211.973,85.573 210.973,84.9063 210.5,83.5 Z"/></g>
<g><path style="opacity:0.529" fill="#ec6b76" d="M 213.5,85.5 C 215.404,85.7376 216.738,86.7376 217.5,88.5C 215.596,88.2624 214.262,87.2624 213.5,85.5 Z"/></g>
<g><path style="opacity:0.788" fill="#e45558" d="M 219.5,91.5 C 222.179,91.5246 223.512,92.858 223.5,95.5C 221.833,94.5 220.5,93.1667 219.5,91.5 Z"/></g>
<g><path style="opacity:0.722" fill="#e44b53" d="M 225.5,98.5 C 227.614,99.784 228.614,101.784 228.5,104.5C 226.992,102.819 225.992,100.819 225.5,98.5 Z"/></g>
<g><path style="opacity:1" fill="#df3b3d" d="M 186.5,107.5 C 186.5,106.5 186.5,105.5 186.5,104.5C 184.5,104.5 182.5,104.5 180.5,104.5C 182.838,102.96 185.505,102.294 188.5,102.5C 188.598,104.553 187.931,106.22 186.5,107.5 Z"/></g>
<g><path style="opacity:0.745" fill="#e24a57" d="M 180.5,104.5 C 172.502,107.943 164.169,110.609 155.5,112.5C 163.498,109.057 171.831,106.391 180.5,104.5 Z"/></g>
<g><path style="opacity:0.541" fill="#e6505e" d="M 155.5,112.5 C 148.501,115.609 141.168,117.943 133.5,119.5C 140.499,116.391 147.832,114.057 155.5,112.5 Z"/></g>
<g><path style="opacity:0.878" fill="#dc0538" d="M 316.5,125.5 C 343.167,125.5 369.833,125.5 396.5,125.5C 396.737,126.791 396.404,127.791 395.5,128.5C 369.349,126.836 343.016,125.836 316.5,125.5 Z"/></g>
<g><path style="opacity:0.812" fill="#e44856" d="M 133.5,119.5 C 125.502,122.943 117.169,125.609 108.5,127.5C 116.498,124.057 124.831,121.391 133.5,119.5 Z"/></g>
<g><path style="opacity:0.573" fill="#e0324b" d="M 228.5,104.5 C 234.169,114.922 235.836,125.922 233.5,137.5C 234.103,126.121 232.436,115.121 228.5,104.5 Z"/></g>
<g><path style="opacity:0.831" fill="#e44b5a" d="M 108.5,127.5 C 101.501,130.609 94.1682,132.943 86.5,134.5C 93.4985,131.391 100.832,129.057 108.5,127.5 Z"/></g>
<g><path style="opacity:0.961" fill="#e14251" d="M 86.5,134.5 C 78.5021,137.943 70.1688,140.609 61.5,142.5C 69.4979,139.057 77.8312,136.391 86.5,134.5 Z"/></g>
<g><path style="opacity:0.722" fill="#e75563" d="M 54.5,145.5 C 52.4309,148.573 49.7642,150.906 46.5,152.5C 48.5691,149.427 51.2358,147.094 54.5,145.5 Z"/></g>
<g><path style="opacity:0.553" fill="#e75563" d="M 231.5,148.5 C 231.323,152.708 229.99,156.374 227.5,159.5C 228.462,155.605 229.796,151.939 231.5,148.5 Z"/></g>
<g><path style="opacity:0.82" fill="#df3445" d="M 77.5,154.5 C 78.8845,153.199 80.3845,153.199 82,154.5C 82.9672,156.63 84.1338,158.63 85.5,160.5C 86.5824,162.673 86.5824,164.673 85.5,166.5C 85.5,166.167 85.5,165.833 85.5,165.5C 84.2862,162.07 82.7862,158.736 81,155.5C 80.3292,154.748 79.4959,154.414 78.5,154.5C 78.1667,154.5 77.8333,154.5 77.5,154.5 Z"/></g>
<g><path style="opacity:0.129" fill="#ec717c" d="M 46.5,152.5 C 45.0401,154.463 43.3734,156.296 41.5,158C 42.5,158.167 43.5,158.333 44.5,158.5C 55.462,156.791 66.462,155.458 77.5,154.5C 77.8333,154.5 78.1667,154.5 78.5,154.5C 66.064,156.894 53.3973,158.561 40.5,159.5C 41.0536,155.945 43.0536,153.612 46.5,152.5 Z"/></g>
<g><path style="opacity:0.36" fill="#e86676" d="M -0.5,165.5 C 28.1667,165.5 56.8333,165.5 85.5,165.5C 85.5,165.833 85.5,166.167 85.5,166.5C 56.8136,165.842 28.4803,166.508 0.5,168.5C 0.166667,168.5 -0.166667,168.5 -0.5,168.5C -0.5,167.5 -0.5,166.5 -0.5,165.5 Z"/></g>
<g><path style="opacity:0.875" fill="#df3d43" d="M 227.5,160.5 C 227.095,163.987 226.095,167.32 224.5,170.5C 222.584,173.33 220.917,176.33 219.5,179.5C 219.043,180.298 218.376,180.631 217.5,180.5C 220.472,173.564 223.805,166.897 227.5,160.5 Z"/></g>
<g><path style="opacity:1" fill="#e44b52" d="M 152.5,175.5 C 154.54,177.177 156.54,178.844 158.5,180.5C 155.13,180.371 153.13,178.705 152.5,175.5 Z"/></g>
<g><path style="opacity:0.325" fill="#e95d6b" d="M 217.5,180.5 C 217.573,182.027 216.906,183.027 215.5,183.5C 215.427,181.973 216.094,180.973 217.5,180.5 Z"/></g>
<g><path style="opacity:0.929" fill="#e44f55" d="M 10.5,183.5 C 13.7046,184.13 15.3712,186.13 15.5,189.5C 13.3674,187.909 11.7007,185.909 10.5,183.5 Z"/></g>
<g><path style="opacity:1" fill="#e3464d" d="M 162.5,182.5 C 164.54,184.177 166.54,185.844 168.5,187.5C 165.13,187.371 163.13,185.705 162.5,182.5 Z"/></g>
<g><path style="opacity:0.353" fill="#e75463" d="M 215.5,183.5 C 215.573,185.027 214.906,186.027 213.5,186.5C 213.427,184.973 214.094,183.973 215.5,183.5 Z"/></g>
<g><path style="opacity:0.596" fill="#e75561" d="M 213.5,186.5 C 213.262,188.404 212.262,189.738 210.5,190.5C 210.738,188.596 211.738,187.262 213.5,186.5 Z"/></g>
<g><path style="opacity:0.569" fill="#e95a67" d="M 210.5,190.5 C 210.262,192.404 209.262,193.738 207.5,194.5C 207.738,192.596 208.738,191.262 210.5,190.5 Z"/></g>
<g><path style="opacity:1" fill="#e3474e" d="M 175.5,191.5 C 177.54,193.177 179.54,194.844 181.5,196.5C 178.13,196.371 176.13,194.705 175.5,191.5 Z"/></g>
<g><path style="opacity:0.651" fill="#e75662" d="M 207.5,194.5 C 207.262,196.404 206.262,197.738 204.5,198.5C 204.738,196.596 205.738,195.262 207.5,194.5 Z"/></g>
<g><path style="opacity:0.557" fill="#ec737e" d="M 50.5,197.5 C 57.3961,197.294 64.0627,197.961 70.5,199.5C 63.6368,199.362 56.9702,198.696 50.5,197.5 Z"/></g>
<g><path style="opacity:0.541" fill="#e55460" d="M 204.5,198.5 C 203.581,201.089 201.914,203.089 199.5,204.5C 200.419,201.911 202.086,199.911 204.5,198.5 Z"/></g>
<g><path style="opacity:1" fill="#e2484e" d="M 188.5,200.5 C 190.54,202.177 192.54,203.844 194.5,205.5C 191.13,205.371 189.13,203.705 188.5,200.5 Z"/></g>
<g><path style="opacity:1" fill="#de2a3f" d="M 344.5,218.5 C 342.257,217.188 339.59,216.522 336.5,216.5C 316.469,217.639 296.469,218.972 276.5,220.5C 276.285,218.821 276.952,217.821 278.5,217.5C 280.978,218.164 283.645,218.497 286.5,218.5C 306.513,217.249 326.513,215.916 346.5,214.5C 346.771,216.38 346.104,217.713 344.5,218.5 Z"/></g>
<g><path style="opacity:0.651" fill="#e54f59" d="M 86.5,201.5 C 87.7348,201.721 88.7348,202.388 89.5,203.5C 93.3668,210.865 96.3668,218.532 98.5,226.5C 94.8063,218.11 90.8063,209.776 86.5,201.5 Z"/></g>
<g><path style="opacity:0.635" fill="#e15262" d="M 98.5,226.5 C 100.601,229.797 101.935,233.463 102.5,237.5C 100.399,234.203 99.0653,230.537 98.5,226.5 Z"/></g>
<g><path style="opacity:0.631" fill="#e85a6a" d="M 103.5,240.5 C 104.924,242.515 105.59,244.848 105.5,247.5C 104.076,245.485 103.41,243.152 103.5,240.5 Z"/></g>
<g><path style="opacity:0.718" fill="#e65465" d="M 105.5,248.5 C 107.41,251.452 108.41,254.786 108.5,258.5C 106.899,255.45 105.899,252.116 105.5,248.5 Z"/></g>
<g><path style="opacity:0.655" fill="#e4495c" d="M 108.5,260.5 C 110.163,262.438 110.829,264.772 110.5,267.5C 109.388,265.401 108.721,263.067 108.5,260.5 Z"/></g>
<g><path style="opacity:0.557" fill="#e44a5e" d="M 110.5,269.5 C 113.053,277.84 114.553,286.507 115,295.5C 115.827,308.34 115.66,321.007 114.5,333.5C 115.343,312.011 114.01,290.678 110.5,269.5 Z"/></g>
<g><path style="opacity:0.89" fill="#e34557" d="M 107.5,373.5 C 107.59,376.152 106.924,378.485 105.5,380.5C 105.41,377.848 106.076,375.515 107.5,373.5 Z"/></g>
<g><path style="opacity:0.761" fill="#e1434f" d="M 105.5,380.5 C 104.5,385.167 103.5,389.833 102.5,394.5C 103.5,394.5 104.5,394.5 105.5,394.5C 105.167,395.167 104.833,395.833 104.5,396.5C 103.167,396.5 101.833,396.5 100.5,396.5C 101.39,390.834 103.057,385.5 105.5,380.5 Z"/></g>
</svg>
